<svg xmlns="http://www.w3.org/2000/svg" viewBox="50 20 1170 600"><path d="M1119 235.6c-41 5.4-60 7-98 8.4-14.6.5-29.2 1.4-32.5 1.9-10.2 1.7-35.4 5-47 6.1-6 .6-15.3 1.7-20.5 2.5-13.5 2-180 1.2-199.5-1-17-1.9-33.8-1.9-50.5.1-15.4 1.8-24.8 1.4-39.5-1.7-11.2-2.4-12-2.4-69-1.6-29.5.4-45.1 1.1-59.5 2.6-10.7 1.1-25.1 2.5-32 3.1-29.7 2.6-41 4-49 6-16.5 4-20.4 4.3-36.3 3-15.6-1.4-52.5-1-88.2 1-85.8 4.6-134.4 4-163-2.2-6.6-1.4-10.2-3.3-14.8-7.7l-3.8-3.6-23.9-.1-24-.1v5.1c0 4.7.4 5.5 3.7 8.7 2.1 2 4.9 4.3 6.1 5.2 2.4 1.5 2.4 1.5-7.2 9.2-5.3 4.2-10.3 8.7-11.1 9.9-1.4 2.1-5.8 15.7-5.2 16.1 2.1 1.6 8.2 2.4 13.3 1.9 5.6-.6 7.4-.3 16.1 2.9 13 4.7 20 6.7 23.7 6.7 1.7 0 5.6.7 8.6 1.5s12.7 2.2 21.5 3.2l16 1.8-10.5.7c-10.9.8-18.5.6-57.5-1.3-18.4-.9-23.9-1.5-27.4-3-2.4-1.1-4.6-1.7-4.9-1.4-.3.3-.1 5.2.5 10.9 1 10 1.4 11.1 8.3 25.3 13.7 28.3 26 39.9 45.1 42.3 15 1.8 27.3 1.1 58.9-3.4 19.4-2.7 43.8-4.4 98.5-6.6 14.9-.6 34.9-1.9 44.5-2.7 11.3-1.1 32.3-1.8 59.2-2l41.7-.4 15.3 3.5c22.6 5.3 33.6 5.9 78.8 4.6 21.2-.7 44.8-1.6 52.5-2.1 7.7-.5 51.1-1.3 96.5-1.8s83.9-1.2 85.5-1.5c2.7-.5 9.8-1.3 40.5-4.7 53.4-5.8 100.7-7.7 144.5-5.9 24.2.9 43.6 1 88.5.1 31.6-.6 61.6-1.3 66.5-1.6 28.6-1.7 58.2-6.7 80.5-13.4 5.2-1.6 12-3.6 15-4.4 6.1-1.7 21.9-7.9 22-8.7 0-.3-2.1-2-4.8-3.8l-4.7-3.2H1144l-1.1-2.6c-1.5-4.1-.3-6 5.4-8.5 4.6-2 7.5-2.3 25.3-3 30.9-1.1 32.7-1.4 36.8-6 6.8-7.4 9-14.9 8.4-28.2-.3-8.1-.8-10.3-3.6-15.9-4.9-10.1-13-16.4-27.1-21.3-4-1.4-9.3-2.8-11.9-3.2-4.8-.6-10.5-3-15.5-6.6-2.5-1.7-2.8-2.4-2.2-5.5.6-3.5.6-3.5-1.7-2-1.3.8-4.4 2.7-7.1 4.2l-4.7 2.8-11.3-1.1c-6.2-.6-12-1.1-12.8-1.1-.7 0 2.2-1.6 6.6-3.6 4.4-1.9 8.4-3.9 8.9-4.4.6-.6.8-.9.6-.9-.3.1-8.4 1.2-18 2.5z" fill="red"/></svg>